<svg width="448" height="640" viewBox="0 0 448 640" fill="none" xmlns="http://www.w3.org/2000/svg">
<g clip-path="url(#clip0_180_2)">
<rect width="448" height="640" fill="#EB5E28"/>
<path d="M43.9062 40.4062H25.9062V59H16.5312V13.5H46.1562V21.0938H25.9062V32.8438H43.9062V40.4062Z" fill="white"/>
<path d="M31.4688 105.344H24V122H14.625V76.5H31.5312C36.9062 76.5 41.0521 77.6979 43.9688 80.0938C46.8854 82.4896 48.3438 85.875 48.3438 90.25C48.3438 93.3542 47.6667 95.9479 46.3125 98.0312C44.9792 100.094 42.9479 101.74 40.2188 102.969L50.0625 121.562V122H40L31.4688 105.344ZM24 97.75H31.5625C33.9167 97.75 35.7396 97.1562 37.0312 95.9688C38.3229 94.7604 38.9688 93.1042 38.9688 91C38.9688 88.8542 38.3542 87.1667 37.125 85.9375C35.9167 84.7083 34.0521 84.0938 31.5312 84.0938H24V97.75Z" fill="white"/>
<path d="M39.2188 175.625H22.7812L19.6562 185H9.6875L26.625 139.5H35.3125L52.3438 185H42.375L39.2188 175.625ZM25.3125 168.031H36.6875L30.9688 151L25.3125 168.031Z" fill="white"/>
<path d="M49.4688 248H40.0938L21.8438 218.062V248H12.4688V202.5H21.8438L40.125 232.5V202.5H49.4688V248Z" fill="white"/>
<path d="M48.8438 295.844C48.4896 300.74 46.6771 304.594 43.4062 307.406C40.1562 310.219 35.8646 311.625 30.5312 311.625C24.6979 311.625 20.1042 309.667 16.75 305.75C13.4167 301.812 11.75 296.417 11.75 289.562V286.781C11.75 282.406 12.5208 278.552 14.0625 275.219C15.6042 271.885 17.8021 269.333 20.6562 267.562C23.5312 265.771 26.8646 264.875 30.6562 264.875C35.9062 264.875 40.1354 266.281 43.3438 269.094C46.5521 271.906 48.4062 275.854 48.9062 280.938H39.5312C39.3021 278 38.4792 275.875 37.0625 274.562C35.6667 273.229 33.5312 272.562 30.6562 272.562C27.5312 272.562 25.1875 273.688 23.625 275.938C22.0833 278.167 21.2917 281.635 21.25 286.344V289.781C21.25 294.698 21.9896 298.292 23.4688 300.562C24.9688 302.833 27.3229 303.969 30.5312 303.969C33.4271 303.969 35.5833 303.312 37 302C38.4375 300.667 39.2604 298.615 39.4688 295.844H48.8438Z" fill="white"/>
<path d="M35.6875 374H26.3125V328.5H35.6875V374Z" fill="white"/>
<path d="M38.9688 425.062C38.9688 423.292 38.3438 421.938 37.0938 421C35.8438 420.042 33.5938 419.042 30.3438 418C27.0938 416.938 24.5208 415.896 22.625 414.875C17.4583 412.083 14.875 408.323 14.875 403.594C14.875 401.135 15.5625 398.948 16.9375 397.031C18.3333 395.094 20.3229 393.583 22.9062 392.5C25.5104 391.417 28.4271 390.875 31.6562 390.875C34.9062 390.875 37.8021 391.469 40.3438 392.656C42.8854 393.823 44.8542 395.479 46.25 397.625C47.6667 399.771 48.375 402.208 48.375 404.938H39C39 402.854 38.3438 401.24 37.0312 400.094C35.7188 398.927 33.875 398.344 31.5 398.344C29.2083 398.344 27.4271 398.833 26.1562 399.812C24.8854 400.771 24.25 402.042 24.25 403.625C24.25 405.104 24.9896 406.344 26.4688 407.344C27.9688 408.344 30.1667 409.281 33.0625 410.156C38.3958 411.76 42.2812 413.75 44.7188 416.125C47.1562 418.5 48.375 421.458 48.375 425C48.375 428.938 46.8854 432.031 43.9062 434.281C40.9271 436.51 36.9167 437.625 31.875 437.625C28.375 437.625 25.1875 436.99 22.3125 435.719C19.4375 434.427 17.2396 432.667 15.7188 430.438C14.2188 428.208 13.4688 425.625 13.4688 422.688H22.875C22.875 427.708 25.875 430.219 31.875 430.219C34.1042 430.219 35.8438 429.771 37.0938 428.875C38.3438 427.958 38.9688 426.688 38.9688 425.062Z" fill="white"/>
<path d="M47.8438 484.844C47.4896 489.74 45.6771 493.594 42.4062 496.406C39.1562 499.219 34.8646 500.625 29.5312 500.625C23.6979 500.625 19.1042 498.667 15.75 494.75C12.4167 490.812 10.75 485.417 10.75 478.562V475.781C10.75 471.406 11.5208 467.552 13.0625 464.219C14.6042 460.885 16.8021 458.333 19.6562 456.562C22.5312 454.771 25.8646 453.875 29.6562 453.875C34.9062 453.875 39.1354 455.281 42.3438 458.094C45.5521 460.906 47.4062 464.854 47.9062 469.938H38.5312C38.3021 467 37.4792 464.875 36.0625 463.562C34.6667 462.229 32.5312 461.562 29.6562 461.562C26.5312 461.562 24.1875 462.688 22.625 464.938C21.0833 467.167 20.2917 470.635 20.25 475.344V478.781C20.25 483.698 20.9896 487.292 22.4688 489.562C23.9688 491.833 26.3229 492.969 29.5312 492.969C32.4271 492.969 34.5833 492.312 36 491C37.4375 489.667 38.2604 487.615 38.4688 484.844H47.8438Z" fill="white"/>
<path d="M52.3438 541.281C52.3438 545.76 51.5521 549.688 49.9688 553.062C48.3854 556.438 46.1146 559.042 43.1562 560.875C40.2188 562.708 36.8438 563.625 33.0312 563.625C29.2604 563.625 25.8958 562.719 22.9375 560.906C19.9792 559.094 17.6875 556.51 16.0625 553.156C14.4375 549.781 13.6146 545.906 13.5938 541.531V539.281C13.5938 534.802 14.3958 530.865 16 527.469C17.625 524.052 19.9062 521.438 22.8438 519.625C25.8021 517.792 29.1771 516.875 32.9688 516.875C36.7604 516.875 40.125 517.792 43.0625 519.625C46.0208 521.438 48.3021 524.052 49.9062 527.469C51.5312 530.865 52.3438 534.792 52.3438 539.25V541.281ZM42.8438 539.219C42.8438 534.448 41.9896 530.823 40.2812 528.344C38.5729 525.865 36.1354 524.625 32.9688 524.625C29.8229 524.625 27.3958 525.854 25.6875 528.312C23.9792 530.75 23.1146 534.333 23.0938 539.062V541.281C23.0938 545.927 23.9479 549.531 25.6562 552.094C27.3646 554.656 29.8229 555.938 33.0312 555.938C36.1771 555.938 38.5938 554.708 40.2812 552.25C41.9688 549.771 42.8229 546.167 42.8438 541.438V539.219Z" fill="white"/>
<path d="M36.6562 626H27.625V591.188L16.8438 594.531V587.188L35.6875 580.438H36.6562V626Z" fill="white"/>
<path d="M199.906 40.4062H181.906V59H172.531V13.5H202.156V21.0938H181.906V32.8438H199.906V40.4062Z" fill="white"/>
<path d="M187.469 105.344H180V122H170.625V76.5H187.531C192.906 76.5 197.052 77.6979 199.969 80.0938C202.885 82.4896 204.344 85.875 204.344 90.25C204.344 93.3542 203.667 95.9479 202.312 98.0312C200.979 100.094 198.948 101.74 196.219 102.969L206.062 121.562V122H196L187.469 105.344ZM180 97.75H187.562C189.917 97.75 191.74 97.1562 193.031 95.9688C194.323 94.7604 194.969 93.1042 194.969 91C194.969 88.8542 194.354 87.1667 193.125 85.9375C191.917 84.7083 190.052 84.0938 187.531 84.0938H180V97.75Z" fill="white"/>
<path d="M195.219 175.625H178.781L175.656 185H165.688L182.625 139.5H191.312L208.344 185H198.375L195.219 175.625ZM181.312 168.031H192.688L186.969 151L181.312 168.031Z" fill="white"/>
<path d="M205.469 248H196.094L177.844 218.062V248H168.469V202.5H177.844L196.125 232.5V202.5H205.469V248Z" fill="white"/>
<path d="M204.844 295.844C204.49 300.74 202.677 304.594 199.406 307.406C196.156 310.219 191.865 311.625 186.531 311.625C180.698 311.625 176.104 309.667 172.75 305.75C169.417 301.812 167.75 296.417 167.75 289.562V286.781C167.75 282.406 168.521 278.552 170.062 275.219C171.604 271.885 173.802 269.333 176.656 267.562C179.531 265.771 182.865 264.875 186.656 264.875C191.906 264.875 196.135 266.281 199.344 269.094C202.552 271.906 204.406 275.854 204.906 280.938H195.531C195.302 278 194.479 275.875 193.062 274.562C191.667 273.229 189.531 272.562 186.656 272.562C183.531 272.562 181.188 273.688 179.625 275.938C178.083 278.167 177.292 281.635 177.25 286.344V289.781C177.25 294.698 177.99 298.292 179.469 300.562C180.969 302.833 183.323 303.969 186.531 303.969C189.427 303.969 191.583 303.312 193 302C194.438 300.667 195.26 298.615 195.469 295.844H204.844Z" fill="white"/>
<path d="M191.688 374H182.312V328.5H191.688V374Z" fill="white"/>
<path d="M194.969 425.062C194.969 423.292 194.344 421.938 193.094 421C191.844 420.042 189.594 419.042 186.344 418C183.094 416.938 180.521 415.896 178.625 414.875C173.458 412.083 170.875 408.323 170.875 403.594C170.875 401.135 171.562 398.948 172.938 397.031C174.333 395.094 176.323 393.583 178.906 392.5C181.51 391.417 184.427 390.875 187.656 390.875C190.906 390.875 193.802 391.469 196.344 392.656C198.885 393.823 200.854 395.479 202.25 397.625C203.667 399.771 204.375 402.208 204.375 404.938H195C195 402.854 194.344 401.24 193.031 400.094C191.719 398.927 189.875 398.344 187.5 398.344C185.208 398.344 183.427 398.833 182.156 399.812C180.885 400.771 180.25 402.042 180.25 403.625C180.25 405.104 180.99 406.344 182.469 407.344C183.969 408.344 186.167 409.281 189.062 410.156C194.396 411.76 198.281 413.75 200.719 416.125C203.156 418.5 204.375 421.458 204.375 425C204.375 428.938 202.885 432.031 199.906 434.281C196.927 436.51 192.917 437.625 187.875 437.625C184.375 437.625 181.188 436.99 178.312 435.719C175.438 434.427 173.24 432.667 171.719 430.438C170.219 428.208 169.469 425.625 169.469 422.688H178.875C178.875 427.708 181.875 430.219 187.875 430.219C190.104 430.219 191.844 429.771 193.094 428.875C194.344 427.958 194.969 426.688 194.969 425.062Z" fill="white"/>
<path d="M203.844 484.844C203.49 489.74 201.677 493.594 198.406 496.406C195.156 499.219 190.865 500.625 185.531 500.625C179.698 500.625 175.104 498.667 171.75 494.75C168.417 490.812 166.75 485.417 166.75 478.562V475.781C166.75 471.406 167.521 467.552 169.062 464.219C170.604 460.885 172.802 458.333 175.656 456.562C178.531 454.771 181.865 453.875 185.656 453.875C190.906 453.875 195.135 455.281 198.344 458.094C201.552 460.906 203.406 464.854 203.906 469.938H194.531C194.302 467 193.479 464.875 192.062 463.562C190.667 462.229 188.531 461.562 185.656 461.562C182.531 461.562 180.188 462.688 178.625 464.938C177.083 467.167 176.292 470.635 176.25 475.344V478.781C176.25 483.698 176.99 487.292 178.469 489.562C179.969 491.833 182.323 492.969 185.531 492.969C188.427 492.969 190.583 492.312 192 491C193.438 489.667 194.26 487.615 194.469 484.844H203.844Z" fill="white"/>
<path d="M208.344 541.281C208.344 545.76 207.552 549.688 205.969 553.062C204.385 556.438 202.115 559.042 199.156 560.875C196.219 562.708 192.844 563.625 189.031 563.625C185.26 563.625 181.896 562.719 178.938 560.906C175.979 559.094 173.688 556.51 172.062 553.156C170.438 549.781 169.615 545.906 169.594 541.531V539.281C169.594 534.802 170.396 530.865 172 527.469C173.625 524.052 175.906 521.438 178.844 519.625C181.802 517.792 185.177 516.875 188.969 516.875C192.76 516.875 196.125 517.792 199.062 519.625C202.021 521.438 204.302 524.052 205.906 527.469C207.531 530.865 208.344 534.792 208.344 539.25V541.281ZM198.844 539.219C198.844 534.448 197.99 530.823 196.281 528.344C194.573 525.865 192.135 524.625 188.969 524.625C185.823 524.625 183.396 525.854 181.688 528.312C179.979 530.75 179.115 534.333 179.094 539.062V541.281C179.094 545.927 179.948 549.531 181.656 552.094C183.365 554.656 185.823 555.938 189.031 555.938C192.177 555.938 194.594 554.708 196.281 552.25C197.969 549.771 198.823 546.167 198.844 541.438V539.219Z" fill="white"/>
<path d="M201.906 626H170.719V619.812L185.438 604.125C187.458 601.917 188.948 599.99 189.906 598.344C190.885 596.698 191.375 595.135 191.375 593.656C191.375 591.635 190.865 590.052 189.844 588.906C188.823 587.74 187.365 587.156 185.469 587.156C183.427 587.156 181.812 587.865 180.625 589.281C179.458 590.677 178.875 592.521 178.875 594.812H169.812C169.812 592.042 170.469 589.51 171.781 587.219C173.115 584.927 174.99 583.135 177.406 581.844C179.823 580.531 182.562 579.875 185.625 579.875C190.312 579.875 193.948 581 196.531 583.25C199.135 585.5 200.438 588.677 200.438 592.781C200.438 595.031 199.854 597.323 198.688 599.656C197.521 601.99 195.521 604.708 192.688 607.812L182.344 618.719H201.906V626Z" fill="white"/>
<path d="M355.906 40.4062H337.906V59H328.531V13.5H358.156V21.0938H337.906V32.8438H355.906V40.4062Z" fill="white"/>
<path d="M343.469 105.344H336V122H326.625V76.5H343.531C348.906 76.5 353.052 77.6979 355.969 80.0938C358.885 82.4896 360.344 85.875 360.344 90.25C360.344 93.3542 359.667 95.9479 358.312 98.0312C356.979 100.094 354.948 101.74 352.219 102.969L362.062 121.562V122H352L343.469 105.344ZM336 97.75H343.562C345.917 97.75 347.74 97.1562 349.031 95.9688C350.323 94.7604 350.969 93.1042 350.969 91C350.969 88.8542 350.354 87.1667 349.125 85.9375C347.917 84.7083 346.052 84.0938 343.531 84.0938H336V97.75Z" fill="white"/>
<path d="M351.219 175.625H334.781L331.656 185H321.688L338.625 139.5H347.312L364.344 185H354.375L351.219 175.625ZM337.312 168.031H348.688L342.969 151L337.312 168.031Z" fill="white"/>
<path d="M361.469 248H352.094L333.844 218.062V248H324.469V202.5H333.844L352.125 232.5V202.5H361.469V248Z" fill="white"/>
<path d="M360.844 295.844C360.49 300.74 358.677 304.594 355.406 307.406C352.156 310.219 347.865 311.625 342.531 311.625C336.698 311.625 332.104 309.667 328.75 305.75C325.417 301.812 323.75 296.417 323.75 289.562V286.781C323.75 282.406 324.521 278.552 326.062 275.219C327.604 271.885 329.802 269.333 332.656 267.562C335.531 265.771 338.865 264.875 342.656 264.875C347.906 264.875 352.135 266.281 355.344 269.094C358.552 271.906 360.406 275.854 360.906 280.938H351.531C351.302 278 350.479 275.875 349.062 274.562C347.667 273.229 345.531 272.562 342.656 272.562C339.531 272.562 337.188 273.688 335.625 275.938C334.083 278.167 333.292 281.635 333.25 286.344V289.781C333.25 294.698 333.99 298.292 335.469 300.562C336.969 302.833 339.323 303.969 342.531 303.969C345.427 303.969 347.583 303.312 349 302C350.438 300.667 351.26 298.615 351.469 295.844H360.844Z" fill="white"/>
<path d="M347.688 374H338.312V328.5H347.688V374Z" fill="white"/>
<path d="M350.969 425.062C350.969 423.292 350.344 421.938 349.094 421C347.844 420.042 345.594 419.042 342.344 418C339.094 416.938 336.521 415.896 334.625 414.875C329.458 412.083 326.875 408.323 326.875 403.594C326.875 401.135 327.562 398.948 328.938 397.031C330.333 395.094 332.323 393.583 334.906 392.5C337.51 391.417 340.427 390.875 343.656 390.875C346.906 390.875 349.802 391.469 352.344 392.656C354.885 393.823 356.854 395.479 358.25 397.625C359.667 399.771 360.375 402.208 360.375 404.938H351C351 402.854 350.344 401.24 349.031 400.094C347.719 398.927 345.875 398.344 343.5 398.344C341.208 398.344 339.427 398.833 338.156 399.812C336.885 400.771 336.25 402.042 336.25 403.625C336.25 405.104 336.99 406.344 338.469 407.344C339.969 408.344 342.167 409.281 345.062 410.156C350.396 411.76 354.281 413.75 356.719 416.125C359.156 418.5 360.375 421.458 360.375 425C360.375 428.938 358.885 432.031 355.906 434.281C352.927 436.51 348.917 437.625 343.875 437.625C340.375 437.625 337.188 436.99 334.312 435.719C331.438 434.427 329.24 432.667 327.719 430.438C326.219 428.208 325.469 425.625 325.469 422.688H334.875C334.875 427.708 337.875 430.219 343.875 430.219C346.104 430.219 347.844 429.771 349.094 428.875C350.344 427.958 350.969 426.688 350.969 425.062Z" fill="white"/>
<path d="M359.844 484.844C359.49 489.74 357.677 493.594 354.406 496.406C351.156 499.219 346.865 500.625 341.531 500.625C335.698 500.625 331.104 498.667 327.75 494.75C324.417 490.812 322.75 485.417 322.75 478.562V475.781C322.75 471.406 323.521 467.552 325.062 464.219C326.604 460.885 328.802 458.333 331.656 456.562C334.531 454.771 337.865 453.875 341.656 453.875C346.906 453.875 351.135 455.281 354.344 458.094C357.552 460.906 359.406 464.854 359.906 469.938H350.531C350.302 467 349.479 464.875 348.062 463.562C346.667 462.229 344.531 461.562 341.656 461.562C338.531 461.562 336.188 462.688 334.625 464.938C333.083 467.167 332.292 470.635 332.25 475.344V478.781C332.25 483.698 332.99 487.292 334.469 489.562C335.969 491.833 338.323 492.969 341.531 492.969C344.427 492.969 346.583 492.312 348 491C349.438 489.667 350.26 487.615 350.469 484.844H359.844Z" fill="white"/>
<path d="M364.344 541.281C364.344 545.76 363.552 549.688 361.969 553.062C360.385 556.438 358.115 559.042 355.156 560.875C352.219 562.708 348.844 563.625 345.031 563.625C341.26 563.625 337.896 562.719 334.938 560.906C331.979 559.094 329.688 556.51 328.062 553.156C326.438 549.781 325.615 545.906 325.594 541.531V539.281C325.594 534.802 326.396 530.865 328 527.469C329.625 524.052 331.906 521.438 334.844 519.625C337.802 517.792 341.177 516.875 344.969 516.875C348.76 516.875 352.125 517.792 355.062 519.625C358.021 521.438 360.302 524.052 361.906 527.469C363.531 530.865 364.344 534.792 364.344 539.25V541.281ZM354.844 539.219C354.844 534.448 353.99 530.823 352.281 528.344C350.573 525.865 348.135 524.625 344.969 524.625C341.823 524.625 339.396 525.854 337.688 528.312C335.979 530.75 335.115 534.333 335.094 539.062V541.281C335.094 545.927 335.948 549.531 337.656 552.094C339.365 554.656 341.823 555.938 345.031 555.938C348.177 555.938 350.594 554.708 352.281 552.25C353.969 549.771 354.823 546.167 354.844 541.438V539.219Z" fill="white"/>
<path d="M335.906 599.25H340.719C343.01 599.25 344.708 598.677 345.812 597.531C346.917 596.385 347.469 594.865 347.469 592.969C347.469 591.135 346.917 589.708 345.812 588.688C344.729 587.667 343.229 587.156 341.312 587.156C339.583 587.156 338.135 587.635 336.969 588.594C335.802 589.531 335.219 590.76 335.219 592.281H326.188C326.188 589.906 326.823 587.781 328.094 585.906C329.385 584.01 331.177 582.531 333.469 581.469C335.781 580.406 338.323 579.875 341.094 579.875C345.906 579.875 349.677 581.031 352.406 583.344C355.135 585.635 356.5 588.802 356.5 592.844C356.5 594.927 355.865 596.844 354.594 598.594C353.323 600.344 351.656 601.688 349.594 602.625C352.156 603.542 354.062 604.917 355.312 606.75C356.583 608.583 357.219 610.75 357.219 613.25C357.219 617.292 355.74 620.531 352.781 622.969C349.844 625.406 345.948 626.625 341.094 626.625C336.552 626.625 332.833 625.427 329.938 623.031C327.062 620.635 325.625 617.469 325.625 613.531H334.656C334.656 615.24 335.292 616.635 336.562 617.719C337.854 618.802 339.438 619.344 341.312 619.344C343.458 619.344 345.135 618.781 346.344 617.656C347.573 616.51 348.188 615 348.188 613.125C348.188 608.583 345.688 606.312 340.688 606.312H335.906V599.25Z" fill="white"/>
<path d="M104.094 51.4688H124V59H94.7188V13.5H104.094V51.4688Z" fill="white"/>
<path d="M117.219 112.625H100.781L97.6562 122H87.6875L104.625 76.5H113.312L130.344 122H120.375L117.219 112.625ZM103.312 105.031H114.688L108.969 88L103.312 105.031Z" fill="white"/>
<path d="M127.25 179.25C125.562 181.271 123.177 182.844 120.094 183.969C117.01 185.073 113.594 185.625 109.844 185.625C105.906 185.625 102.448 184.771 99.4688 183.062C96.5104 181.333 94.2188 178.833 92.5938 175.562C90.9896 172.292 90.1667 168.448 90.125 164.031V160.938C90.125 156.396 90.8854 152.469 92.4062 149.156C93.9479 145.823 96.1562 143.281 99.0312 141.531C101.927 139.76 105.312 138.875 109.188 138.875C114.583 138.875 118.802 140.167 121.844 142.75C124.885 145.312 126.688 149.052 127.25 153.969H118.125C117.708 151.365 116.781 149.458 115.344 148.25C113.927 147.042 111.969 146.438 109.469 146.438C106.281 146.438 103.854 147.635 102.188 150.031C100.521 152.427 99.6771 155.99 99.6562 160.719V163.625C99.6562 168.396 100.562 172 102.375 174.438C104.188 176.875 106.844 178.094 110.344 178.094C113.865 178.094 116.375 177.344 117.875 175.844V168H109.344V161.094H127.25V179.25Z" fill="white"/>
<path d="M128.344 226.281C128.344 230.76 127.552 234.688 125.969 238.062C124.385 241.438 122.115 244.042 119.156 245.875C116.219 247.708 112.844 248.625 109.031 248.625C105.26 248.625 101.896 247.719 98.9375 245.906C95.9792 244.094 93.6875 241.51 92.0625 238.156C90.4375 234.781 89.6146 230.906 89.5938 226.531V224.281C89.5938 219.802 90.3958 215.865 92 212.469C93.625 209.052 95.9062 206.438 98.8438 204.625C101.802 202.792 105.177 201.875 108.969 201.875C112.76 201.875 116.125 202.792 119.062 204.625C122.021 206.438 124.302 209.052 125.906 212.469C127.531 215.865 128.344 219.792 128.344 224.25V226.281ZM118.844 224.219C118.844 219.448 117.99 215.823 116.281 213.344C114.573 210.865 112.135 209.625 108.969 209.625C105.823 209.625 103.396 210.854 101.688 213.312C99.9792 215.75 99.1146 219.333 99.0938 224.062V226.281C99.0938 230.927 99.9479 234.531 101.656 237.094C103.365 239.656 105.823 240.938 109.031 240.938C112.177 240.938 114.594 239.708 116.281 237.25C117.969 234.771 118.823 231.167 118.844 226.438V224.219Z" fill="white"/>
<path d="M108 281.188L116.531 265.5H127.312L114.062 288.062L127.656 311H116.75L108 295.062L99.25 311H88.3438L101.938 288.062L88.6875 265.5H99.4688L108 281.188Z" fill="white"/>
<path d="M109 344.188L117.531 328.5H128.312L115.062 351.062L128.656 374H117.75L109 358.062L100.25 374H89.3438L102.938 351.062L89.6875 328.5H100.469L109 344.188Z" fill="white"/>
<path d="M109 407.188L117.531 391.5H128.312L115.062 414.062L128.656 437H117.75L109 421.062L100.25 437H89.3438L102.938 414.062L89.6875 391.5H100.469L109 407.188Z" fill="white"/>
<path d="M107 470.188L115.531 454.5H126.312L113.062 477.062L126.656 500H115.75L107 484.062L98.25 500H87.3438L100.938 477.062L87.6875 454.5H98.4688L107 470.188Z" fill="white"/>
<path d="M111 533.188L119.531 517.5H130.312L117.062 540.062L130.656 563H119.75L111 547.062L102.25 563H91.3438L104.938 540.062L91.6875 517.5H102.469L111 533.188Z" fill="white"/>
<path d="M108 596.188L116.531 580.5H127.312L114.062 603.062L127.656 626H116.75L108 610.062L99.25 626H88.3438L101.938 603.062L88.6875 580.5H99.4688L108 596.188Z" fill="white"/>
<path d="M416.094 51.4688H436V59H406.719V13.5H416.094V51.4688Z" fill="white"/>
<path d="M429.219 112.625H412.781L409.656 122H399.688L416.625 76.5H425.312L442.344 122H432.375L429.219 112.625ZM415.312 105.031H426.688L420.969 88L415.312 105.031Z" fill="white"/>
<path d="M439.25 179.25C437.562 181.271 435.177 182.844 432.094 183.969C429.01 185.073 425.594 185.625 421.844 185.625C417.906 185.625 414.448 184.771 411.469 183.062C408.51 181.333 406.219 178.833 404.594 175.562C402.99 172.292 402.167 168.448 402.125 164.031V160.938C402.125 156.396 402.885 152.469 404.406 149.156C405.948 145.823 408.156 143.281 411.031 141.531C413.927 139.76 417.312 138.875 421.188 138.875C426.583 138.875 430.802 140.167 433.844 142.75C436.885 145.312 438.688 149.052 439.25 153.969H430.125C429.708 151.365 428.781 149.458 427.344 148.25C425.927 147.042 423.969 146.438 421.469 146.438C418.281 146.438 415.854 147.635 414.188 150.031C412.521 152.427 411.677 155.99 411.656 160.719V163.625C411.656 168.396 412.562 172 414.375 174.438C416.188 176.875 418.844 178.094 422.344 178.094C425.865 178.094 428.375 177.344 429.875 175.844V168H421.344V161.094H439.25V179.25Z" fill="white"/>
<path d="M440.344 226.281C440.344 230.76 439.552 234.688 437.969 238.062C436.385 241.438 434.115 244.042 431.156 245.875C428.219 247.708 424.844 248.625 421.031 248.625C417.26 248.625 413.896 247.719 410.938 245.906C407.979 244.094 405.688 241.51 404.062 238.156C402.438 234.781 401.615 230.906 401.594 226.531V224.281C401.594 219.802 402.396 215.865 404 212.469C405.625 209.052 407.906 206.438 410.844 204.625C413.802 202.792 417.177 201.875 420.969 201.875C424.76 201.875 428.125 202.792 431.062 204.625C434.021 206.438 436.302 209.052 437.906 212.469C439.531 215.865 440.344 219.792 440.344 224.25V226.281ZM430.844 224.219C430.844 219.448 429.99 215.823 428.281 213.344C426.573 210.865 424.135 209.625 420.969 209.625C417.823 209.625 415.396 210.854 413.688 213.312C411.979 215.75 411.115 219.333 411.094 224.062V226.281C411.094 230.927 411.948 234.531 413.656 237.094C415.365 239.656 417.823 240.938 421.031 240.938C424.177 240.938 426.594 239.708 428.281 237.25C429.969 234.771 430.823 231.167 430.844 226.438V224.219Z" fill="white"/>
<path d="M420 281.188L428.531 265.5H439.312L426.062 288.062L439.656 311H428.75L420 295.062L411.25 311H400.344L413.938 288.062L400.688 265.5H411.469L420 281.188Z" fill="white"/>
<path d="M421 344.188L429.531 328.5H440.312L427.062 351.062L440.656 374H429.75L421 358.062L412.25 374H401.344L414.938 351.062L401.688 328.5H412.469L421 344.188Z" fill="white"/>
<path d="M421 407.188L429.531 391.5H440.312L427.062 414.062L440.656 437H429.75L421 421.062L412.25 437H401.344L414.938 414.062L401.688 391.5H412.469L421 407.188Z" fill="white"/>
<path d="M419 470.188L427.531 454.5H438.312L425.062 477.062L438.656 500H427.75L419 484.062L410.25 500H399.344L412.938 477.062L399.688 454.5H410.469L419 470.188Z" fill="white"/>
<path d="M423 533.188L431.531 517.5H442.312L429.062 540.062L442.656 563H431.75L423 547.062L414.25 563H403.344L416.938 540.062L403.688 517.5H414.469L423 533.188Z" fill="white"/>
<path d="M420 596.188L428.531 580.5H439.312L426.062 603.062L439.656 626H428.75L420 610.062L411.25 626H400.344L413.938 603.062L400.688 580.5H411.469L420 596.188Z" fill="white"/>
<path d="M260.094 51.4688H280V59H250.719V13.5H260.094V51.4688Z" fill="white"/>
<path d="M273.219 112.625H256.781L253.656 122H243.688L260.625 76.5H269.312L286.344 122H276.375L273.219 112.625ZM259.312 105.031H270.688L264.969 88L259.312 105.031Z" fill="white"/>
<path d="M283.25 179.25C281.562 181.271 279.177 182.844 276.094 183.969C273.01 185.073 269.594 185.625 265.844 185.625C261.906 185.625 258.448 184.771 255.469 183.062C252.51 181.333 250.219 178.833 248.594 175.562C246.99 172.292 246.167 168.448 246.125 164.031V160.938C246.125 156.396 246.885 152.469 248.406 149.156C249.948 145.823 252.156 143.281 255.031 141.531C257.927 139.76 261.312 138.875 265.188 138.875C270.583 138.875 274.802 140.167 277.844 142.75C280.885 145.312 282.688 149.052 283.25 153.969H274.125C273.708 151.365 272.781 149.458 271.344 148.25C269.927 147.042 267.969 146.438 265.469 146.438C262.281 146.438 259.854 147.635 258.188 150.031C256.521 152.427 255.677 155.99 255.656 160.719V163.625C255.656 168.396 256.562 172 258.375 174.438C260.188 176.875 262.844 178.094 266.344 178.094C269.865 178.094 272.375 177.344 273.875 175.844V168H265.344V161.094H283.25V179.25Z" fill="white"/>
<path d="M284.344 226.281C284.344 230.76 283.552 234.688 281.969 238.062C280.385 241.438 278.115 244.042 275.156 245.875C272.219 247.708 268.844 248.625 265.031 248.625C261.26 248.625 257.896 247.719 254.938 245.906C251.979 244.094 249.688 241.51 248.062 238.156C246.438 234.781 245.615 230.906 245.594 226.531V224.281C245.594 219.802 246.396 215.865 248 212.469C249.625 209.052 251.906 206.438 254.844 204.625C257.802 202.792 261.177 201.875 264.969 201.875C268.76 201.875 272.125 202.792 275.062 204.625C278.021 206.438 280.302 209.052 281.906 212.469C283.531 215.865 284.344 219.792 284.344 224.25V226.281ZM274.844 224.219C274.844 219.448 273.99 215.823 272.281 213.344C270.573 210.865 268.135 209.625 264.969 209.625C261.823 209.625 259.396 210.854 257.688 213.312C255.979 215.75 255.115 219.333 255.094 224.062V226.281C255.094 230.927 255.948 234.531 257.656 237.094C259.365 239.656 261.823 240.938 265.031 240.938C268.177 240.938 270.594 239.708 272.281 237.25C273.969 234.771 274.823 231.167 274.844 226.438V224.219Z" fill="white"/>
<path d="M264 281.188L272.531 265.5H283.312L270.062 288.062L283.656 311H272.75L264 295.062L255.25 311H244.344L257.938 288.062L244.688 265.5H255.469L264 281.188Z" fill="white"/>
<path d="M265 344.188L273.531 328.5H284.312L271.062 351.062L284.656 374H273.75L265 358.062L256.25 374H245.344L258.938 351.062L245.688 328.5H256.469L265 344.188Z" fill="white"/>
<path d="M265 407.188L273.531 391.5H284.312L271.062 414.062L284.656 437H273.75L265 421.062L256.25 437H245.344L258.938 414.062L245.688 391.5H256.469L265 407.188Z" fill="white"/>
<path d="M263 470.188L271.531 454.5H282.312L269.062 477.062L282.656 500H271.75L263 484.062L254.25 500H243.344L256.938 477.062L243.688 454.5H254.469L263 470.188Z" fill="white"/>
<path d="M267 533.188L275.531 517.5H286.312L273.062 540.062L286.656 563H275.75L267 547.062L258.25 563H247.344L260.938 540.062L247.688 517.5H258.469L267 533.188Z" fill="white"/>
<path d="M264 596.188L272.531 580.5H283.312L270.062 603.062L283.656 626H272.75L264 610.062L255.25 626H244.344L257.938 603.062L244.688 580.5H255.469L264 596.188Z" fill="white"/>
</g>
<defs>
<clipPath id="clip0_180_2">
<rect width="448" height="640" fill="white"/>
</clipPath>
</defs>
</svg>
